<svg width="93" height="51" viewBox="0 0 93 51" fill="none" xmlns="http://www.w3.org/2000/svg">
<path d="M9.09117 45.1166C9.81657 44.3282 10.6839 43.4451 11.2043 43.0193C11.0624 43.0035 10.8258 42.972 10.5893 42.9404C10.0531 43.4293 9.37502 44.1389 8.76001 44.8012C7.98731 45.637 7.34076 46.3624 7.34076 46.3782C7.32499 46.3782 7.32499 46.394 7.30922 46.4097C6.80459 46.5517 5.93727 46.7882 5.36956 46.9459C4.51801 47.1824 3.76107 47.1194 3.76107 47.6713C3.76107 47.6713 2.87798 48.1444 3.08298 48.8382C3.08298 48.8382 4.84917 47.4348 6.34728 47.1982C6.34728 47.1982 5.43264 47.7975 5.51149 48.6017C5.51149 48.6017 6.75728 46.7409 8.20808 47.8763C8.20808 47.8763 7.56153 46.9932 7.82961 46.5201C8.05038 46.252 8.53924 45.7159 9.09117 45.1166ZM6.29997 23.197C6.22112 23.2285 6.14227 23.2443 6.06342 23.2443C5.81111 23.2443 5.5588 23.0866 5.46418 22.8343C5.44841 22.8185 5.44841 22.787 5.43264 22.7554L5.24341 22.8185C5.4011 23.2916 5.88996 23.5439 6.33151 23.3862C6.44189 23.3547 6.53651 23.2916 6.61536 23.2128C6.8519 22.992 6.94652 22.6135 6.83613 22.2666L6.39458 22.4085C6.42612 22.4716 6.44189 22.5504 6.44189 22.6135C6.44189 22.6766 6.42612 22.7397 6.41035 22.787L6.61536 22.9131C6.58382 22.9604 6.53651 23.0235 6.4892 23.0551C6.41035 23.1339 6.36305 23.1654 6.29997 23.197ZM24.0565 21.762L15.3832 23.8751C15.3832 23.8751 15.3832 23.8751 15.3832 23.8593V23.8751L32.3039 16.5422L18.3479 18.2453L25.8226 12.7891L17.8275 15.943L19.0417 13.5145L13.3174 17.6303L13.2701 17.5357L21.3756 0L8.17654 15.6276L8.09769 7.11206L3.25645 18.4977L3.00414 15.1388L0.622937 23.8593C0.622937 23.8593 0.938328 23.6228 1.37987 23.4966C1.41141 23.4808 1.44295 23.4808 1.49026 23.4651H1.50603C1.53757 23.4651 1.56911 23.4493 1.61642 23.4493H1.63219C1.66373 23.4493 1.69527 23.4335 1.74257 23.4335C1.77411 23.4335 1.82142 23.4335 1.85296 23.4178C1.86873 23.4178 1.86873 23.4178 1.86873 23.4178C1.90027 23.4178 1.94758 23.4178 1.97912 23.4178C1.97912 23.4178 1.97912 23.4178 1.99489 23.4178C2.02643 23.4178 2.05796 23.4178 2.0895 23.4335H2.10527C2.13681 23.4335 2.18412 23.4493 2.21566 23.4493C2.23143 23.4493 2.23143 23.4493 2.2472 23.4493C2.27874 23.4651 2.32605 23.4651 2.35759 23.4808C3.1776 23.7805 3.87146 23.4808 3.87146 23.4808C3.87146 23.4808 4.64417 23.9697 4.64417 24.3955C4.64417 24.3955 3.63492 24.4585 3.63492 24.0012C3.63492 24.0012 2.34182 23.5439 0.52832 24.2062L4.34455 25.8463C4.34455 25.8305 4.13954 25.1209 4.36032 24.8686C4.42339 24.7897 4.54955 24.7582 4.73878 24.8212C4.80186 24.8528 4.86494 24.837 4.89648 24.8055C5.1961 24.5059 3.76107 21.8408 3.76107 21.8408C3.76107 21.8408 2.46797 21.7146 1.34834 22.8816C1.26949 22.9604 1.19064 23.0393 1.12756 23.1339C1.23795 22.9289 1.60065 22.3612 2.21566 21.8566C2.57836 21.557 3.03567 21.2731 3.57184 21.1312C3.71376 20.7685 3.5403 21.005 3.83992 20.8158C3.98185 19.8854 4.51801 17.4726 6.34728 15.4068C6.47343 15.2649 6.59959 15.1388 6.72574 14.9968C6.72574 14.9968 6.25266 15.8799 6.25266 16.4949C6.26843 16.4792 6.72574 15.7853 7.37229 15.1545C7.37229 15.1545 7.3723 15.1703 7.35653 15.1861C7.23037 15.4384 6.36305 17.2992 6.45766 17.8511V17.8669L8.22385 16.2584C8.17654 16.3215 6.56805 18.4977 6.41035 19.2388L9.0754 17.3307C9.05963 17.3465 8.74424 17.8038 8.60232 18.0561C8.5077 18.2296 8.49193 18.2927 8.49193 18.3084V18.3242L9.92696 17.7092C9.92696 17.7092 9.86388 17.788 9.76926 17.8984L9.2331 18.4346L9.10694 18.5765L8.12923 19.5542L8.11346 19.57L7.37229 20.3269L6.89921 20.8158C6.89921 20.8158 6.50497 21.2258 6.45766 21.4308C6.41035 21.6358 6.63113 21.762 6.63113 21.762C6.83613 21.8723 6.99383 22.0458 7.08844 22.2508C7.13575 22.377 7.16729 22.5031 7.16729 22.6608C7.16729 22.9447 7.0569 23.197 6.8519 23.3862C6.66267 23.5755 6.39458 23.6858 6.09496 23.6858C5.82688 23.6858 5.59034 23.5912 5.4011 23.4335C5.43264 23.4808 5.95304 24.1432 6.93075 23.6228L8.12923 22.7554L8.17654 22.7081L9.40656 21.8093C9.69042 22.1562 9.97427 22.5662 10.2266 23.0393C9.50118 23.7331 8.23962 24.9474 6.99383 26.2563C6.25266 27.0448 5.51149 27.8648 4.88071 28.6532L5.32226 26.5559L5.3538 26.3824C5.3538 26.3824 5.3538 26.3824 5.33803 26.3824C5.33803 26.3824 5.32226 26.3824 5.32226 26.3982C5.32226 26.3982 5.30649 26.3982 5.30649 26.414C5.30649 26.414 5.30649 26.4297 5.29072 26.4297L5.27495 26.4455C5.27495 26.4455 5.27495 26.4613 5.25918 26.4613L5.24341 26.477L5.22764 26.4928L5.21187 26.5086C5.21187 26.5244 5.1961 26.5244 5.1961 26.5244C5.18033 26.5244 5.18033 26.5401 5.16456 26.5401L5.14879 26.5559C5.13302 26.5717 5.13302 26.5717 5.11725 26.5874C5.10148 26.5874 5.10148 26.6032 5.08571 26.6032C5.08571 26.619 5.06994 26.619 5.05417 26.6347C5.05417 26.6347 5.0384 26.6505 5.02264 26.6663C5.00687 26.6821 4.9911 26.6821 4.9911 26.6978C4.97533 26.7136 4.97533 26.7136 4.95956 26.7136C4.94379 26.7294 4.94379 26.7451 4.92802 26.7609C4.91225 26.7609 4.91225 26.7767 4.91225 26.7767C4.91225 26.7767 4.89648 26.7924 4.88071 26.7924C4.86494 26.8082 4.84917 26.824 4.8334 26.8397C4.81763 26.8397 4.81763 26.8555 4.80186 26.8713C4.78609 26.8871 4.77032 26.9028 4.75455 26.9186C4.73878 26.9344 4.73878 26.9501 4.72301 26.9501C4.70724 26.9659 4.70724 26.9817 4.69148 26.9817L4.67571 26.9974C4.67571 26.9974 4.67571 26.9974 4.65994 27.0132C4.64417 27.029 4.64417 27.029 4.6284 27.0448C4.61263 27.0605 4.61263 27.0763 4.59686 27.0763C4.59686 27.0763 4.59686 27.0921 4.58109 27.0921C4.58109 27.0921 4.56532 27.0921 4.56532 27.1078C4.56532 27.1236 4.54955 27.1236 4.53378 27.1394C4.51801 27.1551 4.50224 27.1709 4.48647 27.1867C4.4707 27.2024 4.45493 27.2182 4.45493 27.234C4.43916 27.2498 4.42339 27.2655 4.40762 27.2813C4.39185 27.2971 4.37608 27.3128 4.36032 27.3286C4.34455 27.3444 4.32878 27.3759 4.31301 27.3917C4.29724 27.4075 4.28147 27.4232 4.2657 27.439C4.24993 27.4548 4.23416 27.4863 4.21839 27.5021C4.20262 27.5178 4.18685 27.5336 4.17108 27.5494C4.15531 27.5809 4.13954 27.5967 4.12377 27.6282C4.108 27.644 4.09223 27.6598 4.09223 27.6755C4.07646 27.7071 4.04492 27.7386 4.02916 27.7701C4.02916 27.7859 4.01339 27.8017 3.99762 27.8017C3.96608 27.849 3.93454 27.8963 3.903 27.9436C3.87146 27.9909 3.83992 28.0382 3.80838 28.0855C3.80838 28.1013 3.79261 28.1171 3.77684 28.1329C3.76107 28.1644 3.72953 28.1959 3.71376 28.2432C3.69799 28.259 3.698 28.2748 3.68223 28.2905C3.66646 28.3221 3.63492 28.3536 3.61915 28.3852C3.60338 28.4009 3.60338 28.4325 3.58761 28.4482C3.57184 28.4798 3.5403 28.5113 3.52453 28.5586C3.50876 28.5744 3.49299 28.6059 3.49299 28.6217C3.47722 28.6532 3.44568 28.7006 3.42991 28.7321C3.41414 28.7479 3.39837 28.7794 3.39837 28.7952C3.3826 28.8425 3.35107 28.874 3.3353 28.9056C3.31953 28.9213 3.31953 28.9529 3.30376 28.9686C3.20914 29.1421 3.11452 29.3313 3.00414 29.5363L2.51528 29.6152C2.6099 29.3629 2.70451 29.1263 2.8149 28.9213L2.01066 30.041L2.8149 29.9621C2.13681 31.5391 1.63219 33.5891 1.63219 36.5222L2.2472 36.128C2.8149 39.3923 5.52726 40.8431 5.52726 40.8431V40.8273C7.0096 41.805 8.82309 42.4831 10.8101 42.7512C11.0939 42.7827 11.3147 42.8143 11.362 42.8143C11.3935 42.8143 11.4251 42.8301 11.4724 42.8301C12.5447 42.9247 13.6013 42.8931 14.6105 42.7354C14.6105 42.767 14.6105 42.8143 14.6105 42.8458C14.6105 43.4924 14.9732 44.0285 15.4305 44.0758C14.4844 45.6843 13.7274 47.8132 13.7274 47.8132C13.6959 47.9078 13.617 48.0971 13.5382 48.1444C13.3016 48.1917 13.2859 48.2075 13.0336 48.2863C12.9547 48.2075 12.1978 48.0655 11.4408 48.3494C11.0151 48.5386 10.5893 48.8856 10.3054 49.4533C10.6208 49.2009 11.1885 48.8067 11.6616 48.854C11.1097 49.1694 10.1477 49.7687 10.0373 50.636C10.0373 50.636 13.3647 48.3021 15.0047 48.7279C15.0047 48.7279 14.7682 48.9959 15.3359 50.0052L15.5882 49.0748C15.8878 48.1602 14.7367 48.034 14.2636 48.0182V48.0025C14.2636 48.0025 14.3109 47.8605 14.4055 47.6082C14.6894 46.8828 15.3517 45.2743 16.0613 44.1232C16.0771 44.0916 16.0771 44.0759 16.0928 44.0443L15.9509 43.8551C15.9509 43.8551 16.0455 43.7447 16.0928 43.6658C16.1875 43.5081 16.3136 43.2558 16.3294 42.9247C16.3294 42.6566 16.2663 42.3254 16.0771 41.9154L16.5029 41.7104C16.5186 41.7577 16.5502 41.8208 16.5659 41.8681C16.5659 41.8839 16.5817 41.8997 16.5817 41.9154C16.5975 41.947 16.6132 41.9785 16.6132 42.0258C16.6132 42.0416 16.629 42.0574 16.629 42.0731C16.6448 42.1047 16.6448 42.152 16.6605 42.1835C16.6605 42.1993 16.6763 42.215 16.6763 42.215L19.1206 41.4896L18.5844 41.0481L18.5687 41.0166L18.5529 41.0008L9.34349 32.6429C11.8981 33.8887 14.8944 35.3395 19.9564 37.6892C24.9395 39.9915 28.1092 41.332 29.7335 41.9943C29.7493 42.01 29.765 42.01 29.7808 42.01C30.0173 42.1047 30.2223 42.1835 30.3958 42.2624C30.7427 42.4043 31.0739 42.5304 31.0897 42.5304C31.1212 42.5147 31.1527 42.4989 31.1843 42.4989L12.5762 29.7413L24.0565 21.762ZM11.1728 25.7043L8.39731 27.8175L10.3843 23.4335C10.6997 24.0958 10.9677 24.8686 11.1728 25.7043ZM21.076 40.8116L21.1391 41.1427L24.3876 43.0508L25.2076 43.5239L24.7661 42.3727C27.4469 43.1612 29.6231 43.2085 31.0739 42.5304C28.535 43.2716 22.2903 41.1585 21.076 40.8116Z" fill="#DB0D15"/>
<path d="M3.61832 24.0011C3.61832 24.4427 4.62757 24.3954 4.62757 24.3954C4.62757 23.9854 3.85486 23.4807 3.85486 23.4807C3.85486 23.4807 3.161 23.7804 2.34098 23.4807C2.00982 23.3546 1.66289 23.4019 1.37904 23.4965C0.984805 23.7646 0.511719 24.2219 0.511719 24.2219C2.32522 23.5438 3.61832 24.0011 3.61832 24.0011ZM10.3834 23.4334L8.39649 27.8174L11.1719 25.7042C10.9669 24.8685 10.6988 24.1115 10.3834 23.4334ZM31.0731 42.5146C31.0731 42.5146 24.8441 40.1807 9.32689 32.6271L18.5678 41.048C19.4036 40.7011 19.9713 40.4645 21.1383 41.1268L21.0752 40.7957C22.2894 41.1584 28.5657 43.2873 31.0731 42.5146ZM16.0762 41.9311C16.2655 42.3411 16.3286 42.688 16.3286 42.9403C16.3286 43.2715 16.1866 43.5396 16.092 43.6815C16.0447 43.7603 15.9501 43.8707 15.9501 43.8707L16.2339 44.2492C16.2655 44.2334 16.8016 43.8234 16.8016 42.9403C16.8016 42.5934 16.7228 42.1992 16.502 41.7261L16.0762 41.9311ZM10.5096 42.9403C10.9511 43.0034 11.3454 43.0507 11.3454 43.0507L11.3612 42.8142C11.3612 42.8142 10.9669 42.7826 10.5411 42.7038L10.5096 42.9403ZM10.1942 23.0392C9.9419 22.5661 9.67382 22.1561 9.3742 21.8092L6.89838 23.6227C5.9049 24.1431 5.36873 23.4334 5.36873 23.4334C5.55797 23.5911 5.79451 23.6857 6.06259 23.6857C6.64607 23.6857 7.11915 23.2284 7.11915 22.6607C7.11915 22.5188 7.08761 22.3769 7.04031 22.2665C6.94569 22.0615 6.78799 21.888 6.58299 21.7776C6.58299 21.7776 6.36222 21.6515 6.40952 21.4465C6.45683 21.2415 6.85107 20.8315 6.85107 20.8315L8.06533 19.6014L8.08109 19.5857L9.18496 18.466L9.72113 17.9299C9.81574 17.8195 9.87882 17.7564 9.87882 17.7564L8.44379 18.3714C8.44379 18.3714 8.41226 18.3556 8.55418 18.1033C8.69611 17.851 9.02727 17.3779 9.02727 17.3779L6.34645 19.286C6.50414 18.5449 8.17571 16.2898 8.17571 16.2898L6.40952 17.8983C6.28337 17.3306 7.32416 15.2017 7.32416 15.2017C6.67761 15.8483 6.20452 16.5579 6.20452 16.5579C6.20452 15.9429 6.67761 15.0598 6.67761 15.0598C4.53295 17.2045 3.93371 19.8853 3.79178 20.8788C3.47639 21.068 3.66563 20.8315 3.5237 21.1942C2.08867 21.6042 1.26866 22.8815 1.07942 23.1969C2.24637 21.7619 3.71293 21.9038 3.71293 21.9038C3.71293 21.9038 5.46335 25.1365 4.70641 24.8842C3.93371 24.6161 4.31218 25.9092 4.31218 25.9092L2.87715 25.2942C3.11369 25.7673 3.58678 26.8712 3.3187 28.0066C3.01907 28.4481 2.73522 29.0001 2.46714 29.6782L2.956 29.5993C3.05061 29.3943 3.14523 29.2051 3.23985 29.0316C3.25562 29.0158 3.27139 28.9843 3.27139 28.9685C3.28716 28.937 3.3187 28.8897 3.33447 28.8581C3.35023 28.8424 3.366 28.8108 3.366 28.7951C3.38177 28.7635 3.39754 28.732 3.42908 28.6847C3.44485 28.6531 3.46062 28.6374 3.46062 28.6216C3.47639 28.5901 3.50793 28.5585 3.5237 28.5112C3.53947 28.4954 3.53947 28.4639 3.55524 28.4481C3.57101 28.4166 3.60255 28.3851 3.61832 28.3378C3.63409 28.322 3.63409 28.3062 3.64986 28.2904C3.66563 28.2589 3.69716 28.2274 3.71293 28.1801C3.7287 28.1643 3.7287 28.1485 3.74447 28.1327C3.77601 28.0854 3.80755 28.0381 3.83909 27.9908C3.87063 27.9435 3.90217 27.8962 3.93371 27.8489C3.94948 27.8331 3.94948 27.8174 3.96525 27.8174C3.98102 27.7858 4.01256 27.7543 4.02832 27.7227C4.04409 27.707 4.04409 27.6912 4.05986 27.6754C4.07563 27.6439 4.0914 27.6281 4.10717 27.5966C4.12294 27.5808 4.13871 27.565 4.13871 27.5493C4.15448 27.5335 4.17025 27.502 4.18602 27.4862C4.20179 27.4704 4.21756 27.4547 4.23333 27.4389C4.2491 27.4231 4.26487 27.3916 4.28064 27.3758C4.29641 27.36 4.31218 27.3443 4.32795 27.3285C4.34372 27.3127 4.35948 27.297 4.37525 27.2812C4.39102 27.2654 4.40679 27.2497 4.40679 27.2339C4.42256 27.2181 4.43833 27.2023 4.4541 27.1866C4.46987 27.1708 4.48564 27.155 4.50141 27.1393C4.51718 27.1235 4.53295 27.1077 4.54872 27.092C4.56449 27.0762 4.56449 27.0604 4.58026 27.0604C4.59603 27.0447 4.6118 27.0289 4.62757 27.0131C4.64334 26.9973 4.65911 26.9973 4.65911 26.9816C4.67488 26.9658 4.69065 26.95 4.70641 26.9343C4.72218 26.9185 4.72218 26.9185 4.73795 26.9027C4.75372 26.887 4.76949 26.8712 4.78526 26.8554C4.80103 26.8554 4.80103 26.8396 4.8168 26.8239C4.83257 26.7923 4.86411 26.7766 4.87988 26.7608C4.89565 26.7608 4.89565 26.745 4.91142 26.745C4.92719 26.7293 4.92719 26.7293 4.94296 26.7135C4.94296 26.6977 4.95873 26.6977 4.9745 26.682C4.99027 26.6662 5.00604 26.6662 5.00604 26.6504C5.02181 26.6504 5.02181 26.6346 5.03758 26.6346C5.03758 26.6189 5.05334 26.6189 5.06911 26.6031L5.08488 26.5873C5.10065 26.5873 5.10065 26.5716 5.11642 26.5716L5.13219 26.5558L5.14796 26.54L5.16373 26.5243C5.1795 26.5243 5.1795 26.5243 5.1795 26.5085C5.1795 26.5085 5.19527 26.5085 5.19527 26.4927L5.21104 26.4769L5.22681 26.4612C5.22681 26.4612 5.24258 26.4612 5.24258 26.4454C5.24258 26.4454 5.24258 26.4454 5.25835 26.4296C5.25835 26.4296 5.25835 26.4296 5.27412 26.4296L5.24258 26.6031L4.80103 28.7004C6.53568 26.5716 9.0115 24.1431 10.1942 23.0392ZM5.24258 22.8184L5.43181 22.7553C5.43181 22.7869 5.44758 22.8026 5.46335 22.8342C5.57374 23.0865 5.81028 23.2442 6.06259 23.2442C6.14144 23.2442 6.22029 23.2284 6.29914 23.1969C6.42529 23.1496 6.53568 23.055 6.59876 22.9446L6.39375 22.8184C6.42529 22.7711 6.42529 22.708 6.42529 22.6292C6.42529 22.5503 6.40952 22.4873 6.37799 22.4242L6.81953 22.2823C6.97723 22.7553 6.75645 23.2442 6.31491 23.4019C5.87336 23.5438 5.40027 23.2915 5.24258 22.8184Z" fill="black"/>
<path d="M45.8167 26.335C45.5171 26.2561 45.0755 26.2088 44.5078 26.2088H43.2463V33.2736L43.3724 33.1789L44.3974 32.4535L44.429 32.422V30.4193H44.8232C45.5486 30.4193 46.1321 30.23 46.5736 29.8516C47.0152 29.4731 47.236 28.9527 47.236 28.3062C47.236 27.7069 47.031 27.2023 46.621 26.7923C46.3844 26.5715 46.1163 26.4138 45.8167 26.335ZM44.7759 29.41H44.4448V27.2496H44.8075C45.7536 27.2496 46.2267 27.5965 46.2267 28.2904C46.2267 29.0316 45.7379 29.41 44.7759 29.41ZM52.4557 30.2458C52.8657 30.1354 53.2126 29.8989 53.4807 29.5835C53.7645 29.2208 53.9065 28.7793 53.9065 28.2904C53.9065 27.6596 53.6699 27.1235 53.2126 26.7292C52.8026 26.3823 52.1245 26.1931 51.2099 26.1931H49.9168V33.2578L50.0429 33.1632L51.068 32.4378L51.0995 32.4062V30.3877H51.1626L53.0865 33.1474L53.1338 33.2105L53.1968 33.1632L54.0169 32.5639L54.0799 32.5166L54.0326 32.4535L52.4557 30.2458ZM51.1153 29.41V29.347V27.36V27.2654H51.478C52.4241 27.2654 52.8972 27.6123 52.8972 28.3062C52.8972 29.0473 52.4084 29.4258 51.4307 29.4258H51.1153V29.41ZM34.5257 26.4138C34.1157 26.2719 33.5638 26.2088 32.8699 26.2088H31.356V33.1947H32.8542C33.548 33.1947 34.0999 33.1316 34.4784 33.0055C34.8884 32.8793 35.2827 32.6428 35.6611 32.3116C36.4023 31.6493 36.7808 30.782 36.7808 29.7097C36.7808 28.6531 36.4181 27.77 35.6927 27.1235C35.3615 26.7765 34.9515 26.5557 34.5257 26.4138ZM34.8569 31.4443C34.6203 31.6493 34.3523 31.8228 34.0526 31.9174C33.7688 32.012 33.3745 32.0593 32.933 32.0593H32.5545V27.3442H32.933C33.7846 27.3442 34.4311 27.5492 34.8569 27.9435C35.3457 28.385 35.5823 28.9843 35.5823 29.6939C35.5823 30.4035 35.3457 30.987 34.8569 31.4443ZM27.0037 27.2181C27.4452 27.2181 27.8868 27.3442 28.3125 27.5965L28.3914 27.6438L28.4387 27.565L28.9433 26.6977L28.9906 26.6188L28.9118 26.5715C28.3283 26.2404 27.7133 26.0669 27.0983 26.0669C25.9629 26.0669 25.0167 26.4927 24.2913 27.3442C23.7078 28.0381 23.4082 28.8423 23.4082 29.7254C23.4082 30.7031 23.7709 31.5705 24.4648 32.2643C25.1744 32.9582 26.0259 33.3051 27.0194 33.3051C27.6817 33.3051 28.3125 33.1316 28.9118 32.8005L28.9591 32.7689V32.7059L28.9433 32.6901L28.4387 31.8228L28.3914 31.7439L28.3125 31.7912C28.1706 31.8858 28.0287 31.9489 27.9025 32.012C27.666 32.1224 27.3664 32.1855 27.0037 32.1855C26.3256 32.1855 25.7579 31.9489 25.3005 31.4758C24.8432 31.0028 24.6067 30.4193 24.6067 29.7254C24.6067 29.0316 24.8432 28.4323 25.3005 27.9592C25.7579 27.4546 26.3256 27.2181 27.0037 27.2181ZM85.1775 27.3442H86.7386V33.2578L86.8648 33.1632L87.8898 32.4378L87.9213 32.4062V27.3285H89.4825V26.1931H85.1617V27.3442H85.1775ZM59.8831 26.0827C58.8896 26.0827 58.0066 26.4454 57.2969 27.1392C56.5715 27.8331 56.2088 28.6846 56.2088 29.6623C56.2088 30.7662 56.6031 31.6808 57.3915 32.3747C58.1012 32.9897 58.9212 33.3051 59.82 33.3051C60.8293 33.3051 61.7124 32.9424 62.422 32.2485C63.1316 31.5547 63.4943 30.7031 63.4943 29.6939C63.4943 28.7004 63.1316 27.8331 62.422 27.1392C61.7282 26.4296 60.8766 26.0827 59.8831 26.0827ZM61.5862 31.4601C61.1131 31.9332 60.5297 32.1697 59.8358 32.1697C59.205 32.1697 58.6373 31.9332 58.1642 31.4601C57.6754 31.0027 57.4231 30.3877 57.4231 29.6623C57.4231 28.9685 57.6596 28.385 58.1327 27.9119C58.6058 27.4388 59.1893 27.1865 59.8674 27.1865C60.5454 27.1865 61.1289 27.4231 61.602 27.9119C62.0751 28.385 62.3116 28.9843 62.3116 29.6781C62.2959 30.3877 62.0593 30.9712 61.5862 31.4601ZM81.9132 26.2246L79.4058 28.795V26.13L79.2796 26.2246L78.2546 26.95L78.2231 26.9815V33.2736L78.365 33.1789L79.39 32.4535L79.4216 32.422V30.3247L79.5477 30.1985L81.9447 33.1632L81.992 33.2263L82.0551 33.1789L82.9382 32.5797L83.017 32.5324L82.9539 32.4535L80.3993 29.3785L83.427 26.3507L83.569 26.2088H81.9605L81.9132 26.2246ZM67.1844 26.95L67.1529 26.9815V30.7031C67.1529 31.2708 67.0898 31.6651 66.9794 31.8858C66.869 32.0908 66.6956 32.1855 66.4275 32.1855C66.2225 32.1855 66.0175 32.1066 65.7809 31.9489L65.7021 31.9016L65.6548 31.9805L65.1502 32.8636L65.1028 32.9424L65.1659 32.9897C65.5444 33.2263 65.9702 33.3366 66.4117 33.3366C67.011 33.3366 67.484 33.1159 67.8467 32.7059C68.036 32.5009 68.1621 32.2328 68.241 31.9174C68.3198 31.6493 68.3514 31.2551 68.3514 30.7189V26.1457L68.2094 26.2404L67.1844 26.95ZM74.5488 27.3442L74.5803 27.3127L75.5265 26.3507L75.6684 26.2088H71.6314V33.1947H74.5803L74.6119 33.1789L75.5423 32.217L75.6842 32.0751H72.8457V29.9147H73.713L73.7288 29.8831L74.6907 28.9212L74.8326 28.7792H72.8299V27.3758H74.5488V27.3442Z" fill="white"/>
<path d="M91.7855 28.5113C91.1074 28.5113 90.5713 27.9593 90.5713 27.297C90.5713 26.6189 91.1232 26.0828 91.7855 26.0828C92.4636 26.0828 92.9997 26.6189 92.9997 27.297C92.9997 27.9751 92.4636 28.5113 91.7855 28.5113ZM91.7855 26.2562C91.2021 26.2562 90.7448 26.7135 90.7448 27.297C90.7448 27.8647 91.2021 28.3378 91.7855 28.3378C92.3532 28.3378 92.8263 27.8647 92.8263 27.297C92.8263 26.7135 92.3532 26.2562 91.7855 26.2562ZM92.1167 27.9909L91.754 27.4389H91.5174V27.9909H91.3282V26.5874H91.8959C92.1324 26.5874 92.3532 26.7608 92.3532 27.0132C92.3532 27.3285 92.0694 27.4232 91.9905 27.4232L92.369 27.9751H92.1167V27.9909ZM91.8801 26.7766H91.5017V27.2655H91.8801C92.0063 27.2655 92.1324 27.1709 92.1324 27.0289C92.1324 26.8712 92.0063 26.7766 91.8801 26.7766Z" fill="white"/>
</svg>
