<?xml version="1.0" encoding="utf-8"?>
<!-- Generator: Adobe Illustrator 26.2.1, SVG Export Plug-In . SVG Version: 6.00 Build 0)  -->
<svg version="1.1" id="Calque_1" xmlns="http://www.w3.org/2000/svg" xmlns:xlink="http://www.w3.org/1999/xlink" x="0px" y="0px"
	 viewBox="0 0 64 62" style="enable-background:new 0 0 64 62;" xml:space="preserve">
<style type="text/css">
	.st0{fill:#DB0D15;}
	.st1{fill:#FFFFFF;}
</style>
<path class="st0" d="M25.4,41.7c0.7-0.7,1.4-1.5,1.9-1.9c-0.1,0-0.3,0-0.6-0.1c-0.5,0.4-1.1,1.1-1.7,1.7c-0.7,0.8-1.3,1.4-1.3,1.4
	c0,0,0,0,0,0c-0.5,0.1-1.2,0.3-1.8,0.5c-0.8,0.2-1.5,0.2-1.5,0.7c0,0-0.8,0.4-0.6,1.1c0,0,1.6-1.3,3-1.5c0,0-0.8,0.5-0.8,1.3
	c0,0,1.1-1.7,2.4-0.7c0,0-0.6-0.8-0.3-1.2C24.4,42.7,24.9,42.2,25.4,41.7z M22.8,21.8c-0.1,0-0.1,0-0.2,0c-0.2,0-0.5-0.1-0.5-0.4
	c0,0,0,0,0-0.1l-0.2,0.1c0.1,0.4,0.6,0.7,1,0.5c0.1,0,0.2-0.1,0.3-0.2c0.2-0.2,0.3-0.5,0.2-0.9l-0.4,0.1c0,0.1,0,0.1,0,0.2
	c0,0.1,0,0.1,0,0.2l0.2,0.1c0,0-0.1,0.1-0.1,0.1C22.9,21.7,22.9,21.7,22.8,21.8z M38.9,20.5l-7.9,1.9c0,0,0,0,0,0v0l15.4-6.7
	l-12.7,1.5l6.8-5l-7.3,2.9l1.1-2.2l-5.2,3.7l0-0.1l7.4-15.9l-12,14.2l-0.1-7.7l-4.4,10.3l-0.2-3.1l-2.2,7.9c0,0,0.3-0.2,0.7-0.3
	c0,0,0.1,0,0.1,0h0c0,0,0.1,0,0.1,0h0c0,0,0.1,0,0.1,0c0,0,0.1,0,0.1,0c0,0,0,0,0,0c0,0,0.1,0,0.1,0c0,0,0,0,0,0c0,0,0.1,0,0.1,0h0
	c0,0,0.1,0,0.1,0c0,0,0,0,0,0c0,0,0.1,0,0.1,0c0.7,0.3,1.4,0,1.4,0s0.7,0.4,0.7,0.8c0,0-0.9,0.1-0.9-0.4c0,0-1.2-0.4-2.8,0.2
	l3.5,1.5c0,0-0.2-0.7,0-0.9c0.1-0.1,0.2-0.1,0.3,0c0.1,0,0.1,0,0.1,0c0.3-0.3-1-2.7-1-2.7s-1.2-0.1-2.2,0.9
	c-0.1,0.1-0.1,0.1-0.2,0.2c0.1-0.2,0.4-0.7,1-1.2c0.3-0.3,0.7-0.5,1.2-0.7c0.1-0.3,0-0.1,0.2-0.3c0.1-0.8,0.6-3,2.3-4.9
	c0.1-0.1,0.2-0.2,0.3-0.4c0,0-0.4,0.8-0.4,1.4c0,0,0.4-0.6,1-1.2c0,0,0,0,0,0c-0.1,0.2-0.9,1.9-0.8,2.4v0l1.6-1.5
	c0,0.1-1.5,2-1.6,2.7l2.4-1.7c0,0-0.3,0.4-0.4,0.7c-0.1,0.2-0.1,0.2-0.1,0.2v0l1.3-0.6c0,0-0.1,0.1-0.1,0.2l-0.5,0.5l-0.1,0.1
	l-0.9,0.9l0,0l-0.7,0.7l-0.4,0.4c0,0-0.4,0.4-0.4,0.6c0,0.2,0.2,0.3,0.2,0.3c0.2,0.1,0.3,0.3,0.4,0.4c0,0.1,0.1,0.2,0.1,0.4
	c0,0.3-0.1,0.5-0.3,0.7c-0.2,0.2-0.4,0.3-0.7,0.3c-0.2,0-0.5-0.1-0.6-0.2c0,0,0.5,0.6,1.4,0.2l1.1-0.8l0,0l1.1-0.8
	c0.3,0.3,0.5,0.7,0.7,1.1c-0.7,0.6-1.8,1.7-2.9,2.9c-0.7,0.7-1.3,1.5-1.9,2.2l0.4-1.9l0-0.2c0,0,0,0,0,0c0,0,0,0,0,0c0,0,0,0,0,0
	c0,0,0,0,0,0l0,0c0,0,0,0,0,0l0,0l0,0l0,0c0,0,0,0,0,0c0,0,0,0,0,0l0,0c0,0,0,0,0,0c0,0,0,0,0,0c0,0,0,0,0,0c0,0,0,0,0,0
	c0,0,0,0,0,0c0,0,0,0,0,0c0,0,0,0,0,0c0,0,0,0,0,0s0,0,0,0c0,0,0,0,0,0c0,0,0,0,0,0c0,0,0,0,0,0c0,0,0,0,0,0c0,0,0,0,0,0l0,0
	c0,0,0,0,0,0c0,0,0,0,0,0c0,0,0,0,0,0c0,0,0,0,0,0c0,0,0,0,0,0c0,0,0,0,0,0c0,0,0,0,0,0c0,0,0,0,0,0c0,0,0,0,0,0c0,0,0,0,0,0
	c0,0,0,0,0,0.1c0,0,0,0,0,0c0,0,0,0,0,0.1c0,0,0,0,0,0c0,0,0,0,0,0.1c0,0,0,0,0,0c0,0,0,0.1-0.1,0.1c0,0,0,0,0,0
	c0,0-0.1,0.1-0.1,0.1c0,0-0.1,0.1-0.1,0.1c0,0,0,0,0,0c0,0,0,0.1-0.1,0.1c0,0,0,0,0,0c0,0,0,0.1-0.1,0.1c0,0,0,0,0,0.1
	c0,0,0,0.1-0.1,0.1c0,0,0,0,0,0.1c0,0,0,0.1-0.1,0.1c0,0,0,0,0,0.1c0,0,0,0.1-0.1,0.1c0,0,0,0,0,0.1c-0.1,0.2-0.2,0.3-0.3,0.5
	l-0.4,0.1c0.1-0.2,0.2-0.4,0.3-0.6l-0.7,1l0.7-0.1c-0.6,1.4-1.1,3.3-1.1,6l0.6-0.4c0.5,3,3,4.3,3,4.3v0c1.3,0.9,3,1.5,4.8,1.7
	c0.3,0,0.5,0.1,0.5,0.1c0,0,0.1,0,0.1,0c1,0.1,1.9,0.1,2.9-0.1c0,0,0,0.1,0,0.1c0,0.6,0.3,1.1,0.7,1.1c-0.9,1.5-1.5,3.4-1.5,3.4
	c0,0.1-0.1,0.3-0.2,0.3c-0.2,0-0.2,0.1-0.5,0.1c-0.1-0.1-0.8-0.2-1.4,0.1c-0.4,0.2-0.8,0.5-1,1c0.3-0.2,0.8-0.6,1.2-0.5
	c-0.5,0.3-1.4,0.8-1.5,1.6c0,0,3-2.1,4.5-1.7c0,0-0.2,0.2,0.3,1.2l0.2-0.8c0.3-0.8-0.8-0.9-1.2-1v0c0,0,0-0.1,0.1-0.4
	c0.3-0.7,0.9-2.1,1.5-3.2c0,0,0,0,0-0.1l-0.1-0.2c0,0,0.1-0.1,0.1-0.2c0.1-0.1,0.2-0.4,0.2-0.7c0-0.2-0.1-0.5-0.2-0.9l0.4-0.2
	c0,0,0,0.1,0.1,0.1c0,0,0,0,0,0c0,0,0,0.1,0,0.1c0,0,0,0,0,0c0,0,0,0.1,0,0.1c0,0,0,0,0,0l2.2-0.7L34,38l0,0l0,0l-8.4-7.6
	c2.3,1.1,5,2.4,9.6,4.6c4.5,2.1,7.4,3.3,8.9,3.9c0,0,0,0,0,0c0.2,0.1,0.4,0.2,0.6,0.2c0.3,0.1,0.6,0.2,0.6,0.2c0,0,0.1,0,0.1,0
	L28.5,27.7L38.9,20.5z M27.2,24L24.7,26l1.8-4C26.8,22.6,27.1,23.3,27.2,24z M36.2,37.8l0.1,0.3l3,1.7l0.7,0.4l-0.4-1
	c2.4,0.7,4.4,0.8,5.7,0.1C43,40,37.3,38.1,36.2,37.8z"/>
<path d="M20.4,22.5c0,0.4,0.9,0.4,0.9,0.4c0-0.4-0.7-0.8-0.7-0.8s-0.6,0.3-1.4,0c-0.3-0.1-0.6-0.1-0.9,0c-0.4,0.2-0.8,0.7-0.8,0.7
	C19.2,22.1,20.4,22.5,20.4,22.5z M26.5,22l-1.8,4l2.5-1.9C27.1,23.3,26.8,22.6,26.5,22z M45.3,39.3c0,0-5.7-2.1-19.8-9L34,38
	c0.8-0.3,1.3-0.5,2.3,0.1l-0.1-0.3C37.3,38.1,43,40,45.3,39.3z M31.7,38.8c0.2,0.4,0.2,0.7,0.2,0.9c0,0.3-0.1,0.5-0.2,0.7
	c0,0.1-0.1,0.2-0.1,0.2l0.3,0.3c0,0,0.5-0.4,0.5-1.2c0-0.3-0.1-0.7-0.3-1.1L31.7,38.8z M26.6,39.7c0.4,0.1,0.8,0.1,0.8,0.1l0-0.2
	c0,0-0.4,0-0.7-0.1L26.6,39.7z M26.4,21.6c-0.2-0.4-0.5-0.8-0.7-1.1l-2.2,1.6C22.5,22.6,22,22,22,22c0.2,0.1,0.4,0.2,0.6,0.2
	c0.5,0,1-0.4,1-0.9c0-0.1,0-0.3-0.1-0.4c-0.1-0.2-0.2-0.3-0.4-0.4c0,0-0.2-0.1-0.2-0.3c0-0.2,0.4-0.6,0.4-0.6l1.1-1.1l0,0l1-1
	l0.5-0.5c0.1-0.1,0.1-0.2,0.1-0.2l-1.3,0.6c0,0,0,0,0.1-0.2c0.1-0.2,0.4-0.7,0.4-0.7l-2.4,1.7c0.1-0.7,1.7-2.7,1.7-2.7L22.9,17
	c-0.1-0.5,0.8-2.4,0.8-2.4c-0.6,0.6-1,1.2-1,1.2c0-0.6,0.4-1.4,0.4-1.4c-1.9,1.9-2.5,4.4-2.6,5.3c-0.3,0.2-0.1,0-0.2,0.3
	c-1.3,0.4-2,1.5-2.2,1.8c1.1-1.3,2.4-1.2,2.4-1.2s1.6,2.9,0.9,2.7c-0.7-0.2-0.4,0.9-0.4,0.9l-1.3-0.6c0.2,0.4,0.6,1.4,0.4,2.5
	c-0.3,0.4-0.5,0.9-0.8,1.5l0.4-0.1c0.1-0.2,0.2-0.4,0.3-0.5c0,0,0,0,0-0.1c0,0,0-0.1,0.1-0.1c0,0,0,0,0-0.1c0,0,0-0.1,0.1-0.1
	c0,0,0,0,0-0.1c0,0,0-0.1,0.1-0.1c0,0,0,0,0-0.1c0,0,0-0.1,0.1-0.1c0,0,0,0,0,0c0,0,0-0.1,0.1-0.1c0,0,0,0,0,0c0,0,0.1-0.1,0.1-0.1
	c0,0,0.1-0.1,0.1-0.1c0,0,0,0,0,0c0,0,0-0.1,0.1-0.1c0,0,0,0,0,0c0,0,0,0,0-0.1c0,0,0,0,0,0c0,0,0,0,0-0.1c0,0,0,0,0,0
	c0,0,0,0,0-0.1c0,0,0,0,0,0c0,0,0,0,0,0c0,0,0,0,0,0c0,0,0,0,0,0c0,0,0,0,0,0c0,0,0,0,0,0c0,0,0,0,0,0c0,0,0,0,0,0c0,0,0,0,0,0
	c0,0,0,0,0,0c0,0,0,0,0,0c0,0,0,0,0,0c0,0,0,0,0,0c0,0,0,0,0.1-0.1c0,0,0,0,0,0c0,0,0,0,0,0c0,0,0,0,0,0c0,0,0,0,0,0c0,0,0,0,0,0
	c0,0,0,0,0,0l0,0c0,0,0,0,0,0l0,0l0,0l0,0c0,0,0,0,0,0c0,0,0,0,0,0l0,0l0,0c0,0,0,0,0,0c0,0,0,0,0,0c0,0,0,0,0,0l0,0.2l-0.4,1.9
	C23,24.8,25.3,22.6,26.4,21.6z M21.9,21.4l0.2-0.1c0,0,0,0,0,0.1c0.1,0.2,0.3,0.4,0.5,0.4c0.1,0,0.1,0,0.2,0c0.1,0,0.2-0.1,0.3-0.2
	l-0.2-0.1c0,0,0-0.1,0-0.2c0-0.1,0-0.1,0-0.2l0.4-0.1c0.1,0.4-0.1,0.9-0.5,1C22.4,22.1,22,21.9,21.9,21.4z"/>
<path class="st1" d="M20.7,54.9c-0.3-0.1-0.7-0.1-1.2-0.1h-1.1v6.4l0.1-0.1l0.9-0.7l0,0v-1.8h0.4c0.7,0,1.2-0.2,1.6-0.5
	c0.4-0.3,0.6-0.8,0.6-1.4c0-0.5-0.2-1-0.6-1.4C21.3,55.2,21,55,20.7,54.9z M19.8,57.7h-0.3v-2h0.3c0.9,0,1.3,0.3,1.3,0.9
	C21.1,57.4,20.7,57.7,19.8,57.7z M26.8,58.5c0.4-0.1,0.7-0.3,0.9-0.6c0.3-0.3,0.4-0.7,0.4-1.2c0-0.6-0.2-1.1-0.6-1.4
	c-0.4-0.3-1-0.5-1.8-0.5h-1.2v6.4l0.1-0.1l0.9-0.7l0,0v-1.8h0.1l1.7,2.5l0,0.1l0.1,0l0.7-0.5l0.1,0l0-0.1L26.8,58.5z M25.6,57.7
	L25.6,57.7v-1.9v-0.1h0.3c0.9,0,1.3,0.3,1.3,0.9c0,0.7-0.4,1-1.3,1L25.6,57.7L25.6,57.7z M10.5,55c-0.4-0.1-0.9-0.2-1.5-0.2H7.6v6.3
	H9c0.6,0,1.1-0.1,1.5-0.2c0.4-0.1,0.7-0.3,1.1-0.6c0.7-0.6,1-1.4,1-2.4c0-1-0.3-1.8-1-2.3C11.2,55.3,10.9,55.1,10.5,55z M10.8,59.6
	c-0.2,0.2-0.5,0.3-0.7,0.4c-0.3,0.1-0.6,0.1-1,0.1H8.7v-4.3H9c0.8,0,1.4,0.2,1.7,0.5c0.4,0.4,0.7,0.9,0.7,1.6
	C11.4,58.6,11.2,59.2,10.8,59.6z M3.7,55.7c0.4,0,0.8,0.1,1.2,0.3l0.1,0l0-0.1l0.5-0.8l0-0.1l-0.1,0c-0.5-0.3-1.1-0.5-1.6-0.5
	c-1,0-1.9,0.4-2.5,1.2c-0.5,0.6-0.8,1.4-0.8,2.2c0,0.9,0.3,1.7,1,2.3C2,61,2.8,61.3,3.7,61.3c0.6,0,1.2-0.2,1.7-0.5l0,0v-0.1l0,0
	L5,59.9l0-0.1l-0.1,0C4.7,60,4.6,60,4.5,60.1c-0.2,0.1-0.5,0.2-0.8,0.2c-0.6,0-1.1-0.2-1.5-0.6c-0.4-0.4-0.6-1-0.6-1.6
	c0-0.6,0.2-1.2,0.6-1.6C2.5,56,3,55.7,3.7,55.7z M56.5,55.9h1.4v5.4l0.1-0.1l0.9-0.7l0,0v-4.6h1.4v-1h-3.9L56.5,55.9L56.5,55.9z
	 M33.5,54.7c-0.9,0-1.7,0.3-2.3,1c-0.7,0.6-1,1.4-1,2.3c0,1,0.4,1.8,1.1,2.5c0.6,0.6,1.4,0.8,2.2,0.8c0.9,0,1.7-0.3,2.4-1
	c0.6-0.6,1-1.4,1-2.3c0-0.9-0.3-1.7-1-2.3C35.2,55,34.4,54.7,33.5,54.7z M35.1,59.6c-0.4,0.4-1,0.6-1.6,0.6c-0.6,0-1.1-0.2-1.5-0.6
	c-0.4-0.4-0.7-1-0.7-1.6c0-0.6,0.2-1.2,0.6-1.6c0.4-0.4,1-0.7,1.6-0.7c0.6,0,1.1,0.2,1.6,0.7c0.4,0.4,0.6,1,0.6,1.6
	C35.7,58.6,35.5,59.2,35.1,59.6z M53.5,54.8l-2.3,2.3v-2.4l-0.1,0.1l-0.9,0.7l0,0v5.7l0.1-0.1l0.9-0.7l0,0v-1.9l0.1-0.1l2.2,2.7
	l0,0.1l0.1,0l0.8-0.5l0.1,0l-0.1-0.1l-2.3-2.8l2.8-2.8l0.1-0.1L53.5,54.8L53.5,54.8z M40.2,55.5L40.2,55.5l0,3.4
	c0,0.5-0.1,0.9-0.2,1.1c-0.1,0.2-0.3,0.3-0.5,0.3c-0.2,0-0.4-0.1-0.6-0.2l-0.1,0l0,0.1l-0.5,0.8l0,0.1l0.1,0
	c0.3,0.2,0.7,0.3,1.1,0.3c0.5,0,1-0.2,1.3-0.6c0.2-0.2,0.3-0.4,0.4-0.7c0.1-0.2,0.1-0.6,0.1-1.1v-4.2l-0.1,0.1L40.2,55.5z
	 M46.8,55.9L46.8,55.9l0.9-0.9l0.1-0.1h-3.7v6.3h2.7l0,0l0.8-0.9l0.1-0.1h-2.6v-2h0.8l0,0l0.9-0.9l0.1-0.1h-1.8v-1.3L46.8,55.9
	L46.8,55.9z"/>
<path class="st1" d="M62.5,56.9c-0.6,0-1.1-0.5-1.1-1.1c0-0.6,0.5-1.1,1.1-1.1c0.6,0,1.1,0.5,1.1,1.1C63.6,56.4,63.1,56.9,62.5,56.9
	z M62.5,54.9c-0.5,0-0.9,0.4-0.9,0.9c0,0.5,0.4,0.9,0.9,0.9c0.5,0,0.9-0.4,0.9-0.9C63.5,55.3,63,54.9,62.5,54.9z M62.8,56.4
	l-0.3-0.5h-0.2v0.5h-0.2v-1.3h0.5c0.2,0,0.4,0.2,0.4,0.4c0,0.3-0.3,0.4-0.3,0.4l0.3,0.5L62.8,56.4L62.8,56.4z M62.6,55.3h-0.3v0.4
	h0.3c0.1,0,0.2-0.1,0.2-0.2C62.8,55.4,62.7,55.3,62.6,55.3z"/>
</svg>
