<?xml version="1.0" encoding="utf-8"?>
<!-- Generator: Adobe Illustrator 26.2.0, SVG Export Plug-In . SVG Version: 6.00 Build 0)  -->
<svg version="1.1" id="CD_Projekt_RED_logo" xmlns="http://www.w3.org/2000/svg" xmlns:xlink="http://www.w3.org/1999/xlink"
	 x="0px" y="0px" viewBox="0 0 586.7 333.9" style="enable-background:new 0 0 586.7 333.9;" xml:space="preserve">
<style type="text/css">
	.st0{fill:#DB0D15;}
	.st1{fill:#FFFFFF;}
</style>
<g id="CD_Projekt_S.A._horizontal_1_">
	<g>
		<path class="st0" d="M54.4,293c4.6-5,10.1-10.6,13.4-13.3c-0.9-0.1-2.4-0.3-3.9-0.5c-3.4,3.1-7.7,7.6-11.6,11.8
			c-4.9,5.3-9,9.9-9,10c-0.1,0-0.1,0.1-0.2,0.2c-3.2,0.9-8.7,2.4-12.3,3.4c-5.4,1.5-10.2,1.1-10.2,4.6c0,0-5.6,3-4.3,7.4
			c0,0,11.2-8.9,20.7-10.4c0,0-5.8,3.8-5.3,8.9c0,0,7.9-11.8,17.1-4.6c0,0-4.1-5.6-2.4-8.6C47.8,300.2,50.9,296.8,54.4,293z
			 M36.7,154c-0.5,0.2-1,0.3-1.5,0.3c-1.6,0-3.2-1-3.8-2.6c-0.1-0.1-0.1-0.3-0.2-0.5l-1.2,0.4c1,3,4.1,4.6,6.9,3.6
			c0.7-0.2,1.3-0.6,1.8-1.1c1.5-1.4,2.1-3.8,1.4-6l-2.8,0.9c0.2,0.4,0.3,0.9,0.3,1.3c0,0.4-0.1,0.8-0.2,1.1l1.3,0.8
			c-0.2,0.3-0.5,0.7-0.8,0.9C37.4,153.6,37.1,153.8,36.7,154z M149.3,144.9l-55,13.4c0,0,0,0,0-0.1v0.1l107.3-46.5l-88.5,10.8
			L160.5,88l-50.7,20l0,0l7.7-15.4l-36.3,26.1l-0.3-0.6L132.3,6.9L48.6,106l-0.5-54l-30.7,72.2l-1.6-21.3L0.7,158.2l0,0l0,0
			c0,0,2-1.5,4.8-2.3l0,0c0.2-0.1,0.4-0.1,0.7-0.2h0.1c0.2,0,0.4-0.1,0.7-0.1h0.1c0.2,0,0.4-0.1,0.7-0.1l0,0c0.2,0,0.5,0,0.7-0.1
			c0.1,0,0.1,0,0.1,0c0.2,0,0.5,0,0.7,0c0,0,0,0,0.1,0c0.2,0,0.4,0,0.6,0.1h0.1c0.2,0,0.5,0.1,0.7,0.1c0.1,0,0.1,0,0.2,0
			c0.2,0.1,0.5,0.1,0.7,0.2c5.2,1.9,9.6,0,9.6,0s4.9,3.1,4.9,5.8l0,0l0,0c0,0-6.4,0.4-6.4-2.5c0,0-8.2-2.9-19.7,1.3l24.2,10.4
			c0-0.1-1.3-4.6,0.1-6.2c0.4-0.5,1.2-0.7,2.4-0.3c0.4,0.2,0.8,0.1,1-0.1c1.9-1.9-7.2-18.8-7.2-18.8s-8.2-0.8-15.3,6.6
			c-0.5,0.5-1,1-1.4,1.6l0,0l0,0c0.7-1.3,3-4.9,6.9-8.1c2.3-1.9,5.2-3.7,8.6-4.6c0.9-2.3-0.2-0.8,1.7-2l0,0
			c0.9-5.9,4.3-21.2,15.9-34.3c0.8-0.9,1.6-1.7,2.4-2.6c0,0-3,5.6-3,9.5c0.1-0.1,3-4.5,7.1-8.5l0,0l0,0c0,0,0,0.1-0.1,0.2
			c-0.8,1.6-6.3,13.4-5.7,16.9v0.1L48.9,110l0,0c-0.3,0.4-10.5,14.2-11.5,18.9l0,0l16.9-12.1l0,0c-0.1,0.1-2.1,3-3,4.6
			c-0.6,1.1-0.7,1.5-0.7,1.6v0.1l9.1-3.9c0,0-0.4,0.5-1,1.2l-3.4,3.4l-0.8,0.9l-6.2,6.2l-0.1,0.1l-4.7,4.8l-3,3.1l0,0
			c0,0-2.5,2.6-2.8,3.9c-0.3,1.3,1.1,2.1,1.1,2.1l0,0c1.3,0.7,2.3,1.8,2.9,3.1c0.3,0.8,0.5,1.6,0.5,2.6c0,1.8-0.7,3.4-2,4.6
			c-1.2,1.2-2.9,1.9-4.8,1.9c-1.7,0-3.2-0.6-4.4-1.6c0.2,0.3,3.5,4.5,9.7,1.2l7.6-5.5l0.3-0.3l7.8-5.7c1.8,2.2,3.6,4.8,5.2,7.8l0,0
			c-4.6,4.4-12.6,12.1-20.5,20.4c-4.7,5-9.4,10.2-13.4,15.2l0,0l0,0l2.8-13.3l0,0l0.2-1.1l0,0l0,0c0,0,0,0-0.1,0l0,0
			c0,0-0.1,0-0.1,0.1l0,0c0,0-0.1,0-0.1,0.1c0,0,0,0.1-0.1,0.1l-0.1,0.1c0,0,0,0.1-0.1,0.1l-0.1,0.1l-0.1,0.1l-0.1,0.1
			c0,0.1-0.1,0.1-0.1,0.1c-0.1,0-0.1,0.1-0.2,0.1l-0.1,0.1c-0.1,0.1-0.1,0.1-0.2,0.2c-0.1,0-0.1,0.1-0.2,0.1c0,0.1-0.1,0.1-0.2,0.2
			c0,0-0.1,0.1-0.2,0.2c-0.1,0.1-0.2,0.1-0.2,0.2c-0.1,0.1-0.1,0.1-0.2,0.1c-0.1,0.1-0.1,0.2-0.2,0.3c-0.1,0-0.1,0.1-0.1,0.1
			s-0.1,0.1-0.2,0.1l0,0c-0.1,0.1-0.2,0.2-0.3,0.3c-0.1,0-0.1,0.1-0.2,0.2c-0.1,0.1-0.2,0.2-0.3,0.3c-0.1,0.1-0.1,0.2-0.2,0.2
			c-0.1,0.1-0.1,0.2-0.2,0.2l-0.1,0.1c0,0,0,0-0.1,0.1s-0.1,0.1-0.2,0.2c-0.1,0.1-0.1,0.2-0.2,0.2c0,0,0,0.1-0.1,0.1
			c0,0-0.1,0-0.1,0.1s-0.1,0.1-0.2,0.2c-0.1,0.1-0.2,0.2-0.3,0.3c-0.1,0.1-0.2,0.2-0.2,0.3c-0.1,0.1-0.2,0.2-0.3,0.3
			c-0.1,0.1-0.2,0.2-0.3,0.3c-0.1,0.1-0.2,0.3-0.3,0.4c-0.1,0.1-0.2,0.2-0.3,0.3c-0.1,0.1-0.2,0.3-0.3,0.4c-0.1,0.1-0.2,0.2-0.3,0.3
			c-0.1,0.2-0.2,0.3-0.3,0.5c-0.1,0.1-0.2,0.2-0.2,0.3c-0.1,0.2-0.3,0.4-0.4,0.6c0,0.1-0.1,0.2-0.2,0.2c-0.2,0.3-0.4,0.6-0.6,0.9
			l0,0c-0.2,0.3-0.4,0.6-0.6,0.9c0,0.1-0.1,0.2-0.2,0.3c-0.1,0.2-0.3,0.4-0.4,0.7c-0.1,0.1-0.1,0.2-0.2,0.3
			c-0.1,0.2-0.3,0.4-0.4,0.6c-0.1,0.1-0.1,0.3-0.2,0.4c-0.1,0.2-0.3,0.4-0.4,0.7c-0.1,0.1-0.2,0.3-0.2,0.4c-0.1,0.2-0.3,0.5-0.4,0.7
			c-0.1,0.1-0.2,0.3-0.2,0.4c-0.1,0.3-0.3,0.5-0.4,0.7c-0.1,0.1-0.1,0.3-0.2,0.4c-0.6,1.1-1.2,2.3-1.9,3.6l0,0l0,0l0,0l-3.1,0.5
			c0.6-1.6,1.2-3.1,1.9-4.4l-5.1,7.1l5.1-0.5c-4.3,10-7.5,23-7.5,41.6L11,236c3.6,20.7,20.8,29.9,20.8,29.9v-0.1
			c9.4,6.2,20.9,10.5,33.5,12.2l0,0c1.8,0.2,3.2,0.4,3.5,0.4l0,0c0.2,0,0.4,0.1,0.7,0.1c6.8,0.6,13.5,0.4,19.9-0.6
			c0,0.2,0,0.5,0,0.7c0,4.1,2.3,7.5,5.2,7.8c-6,10.2-10.8,23.7-10.8,23.7c-0.2,0.6-0.7,1.8-1.2,2.1c-1.5,0.3-1.6,0.4-3.2,0.9l0,0
			c-0.5-0.5-5.3-1.4-10.1,0.4l0,0l0,0c-2.7,1.2-5.4,3.4-7.2,7c2-1.6,5.6-4.1,8.6-3.8c-3.5,2-9.6,5.8-10.3,11.3
			c0,0,21.1-14.8,31.5-12.1c0,0-1.5,1.7,2.1,8.1l1.6-5.9c1.9-5.8-5.4-6.6-8.4-6.7v-0.1c0,0,0.3-0.9,0.9-2.5
			c1.8-4.6,6-14.8,10.5-22.1c0.1-0.2,0.1-0.3,0.2-0.5l-0.9-1.2c0,0,0.6-0.7,0.9-1.2c0.6-1,1.4-2.6,1.5-4.7c0-1.7-0.4-3.8-1.6-6.4
			l0,0l0,0l2.7-1.3c0.1,0.3,0.3,0.7,0.4,1c0,0.1,0.1,0.2,0.1,0.3c0.1,0.2,0.2,0.4,0.2,0.7c0,0.1,0.1,0.2,0.1,0.3
			c0.1,0.2,0.1,0.5,0.2,0.7c0,0.1,0.1,0.2,0.1,0.2L118,270l-3.4-2.8l0,0l0,0l0,0l0,0l-0.1-0.2l-0.1-0.1l0,0l-58.4-53l0,0l0,0
			c16.2,7.9,35.2,17.1,67.3,32c31.6,14.6,51.7,23.1,62,27.3c0.1,0.1,0.2,0.1,0.3,0.1l0,0c1.5,0.6,2.8,1.1,3.9,1.6
			c2.2,0.9,4.3,1.7,4.4,1.7c0.2-0.1,0.4-0.2,0.6-0.2l-118-80.9L149.3,144.9z M67.6,169.9L67.6,169.9L50,183.3l12.6-27.8l0,0l0,0
			C64.6,159.7,66.3,164.6,67.6,169.9L67.6,169.9z M130.4,265.7l0.4,2.1l0,0l0,0l20.6,12.1l5.2,3l-2.8-7.3c17,5,30.8,5.3,40,1l0,0
			C177.7,281.3,138.1,267.9,130.4,265.7z"/>
		<path d="M19.7,159.1c0,2.8,6.4,2.5,6.4,2.5c0-2.6-4.9-5.8-4.9-5.8s-4.4,1.9-9.6,0c-2.1-0.8-4.3-0.5-6.1,0.1
			C3,157.6,0,160.5,0,160.5C11.5,156.2,19.7,159.1,19.7,159.1z M62.6,155.5L50,183.3l17.6-13.4C66.3,164.6,64.6,159.8,62.6,155.5z
			 M193.8,276.5c0,0-39.5-14.8-137.9-62.7l58.6,53.4l0,0l0,0c5.3-2.2,8.9-3.7,16.3,0.5l-0.4-2.1
			C138.1,267.9,177.9,281.4,193.8,276.5z M98.7,272.8c1.2,2.6,1.6,4.8,1.6,6.4c0,2.1-0.9,3.8-1.5,4.7c-0.3,0.5-0.9,1.2-0.9,1.2
			l1.8,2.4c0.2-0.1,3.6-2.7,3.6-8.3c0-2.2-0.5-4.7-1.9-7.7L98.7,272.8z M63.4,279.2c2.8,0.4,5.3,0.7,5.3,0.7l0.1-1.5
			c0,0-2.5-0.2-5.2-0.7L63.4,279.2z M61.4,153c-1.6-3-3.3-5.6-5.2-7.8l-15.7,11.5c-6.3,3.3-9.7-1.2-9.7-1.2c1.2,1,2.7,1.6,4.4,1.6
			c3.7,0,6.7-2.9,6.7-6.5c0-0.9-0.2-1.8-0.5-2.5c-0.6-1.3-1.6-2.4-2.9-3.1l0,0c0,0-1.4-0.8-1.1-2.1c0.3-1.3,2.8-3.9,2.8-3.9l0,0
			l7.7-7.8l0.1-0.1l7-7.1l3.4-3.4c0.6-0.7,1-1.1,1-1.1l-9.1,3.9c0,0-0.2-0.1,0.7-1.7s3-4.6,3-4.6l-17,12.1c1-4.7,11.6-19,11.6-19
			l-11.2,10.2c-0.8-3.6,5.8-17.1,5.8-17.1c-4.1,4.1-7.1,8.6-7.1,8.6c0-3.9,3-9.5,3-9.5C25.5,116,21.7,133,20.8,139.3
			c-2,1.2-0.8-0.3-1.7,2C10,143.9,4.8,152,3.6,154c7.4-9.1,16.7-8.2,16.7-8.2s11.1,20.5,6.3,18.9c-4.9-1.7-2.5,6.5-2.5,6.5l-9.1-3.9
			c1.5,3,4.5,10,2.8,17.2c-1.9,2.8-3.7,6.3-5.4,10.6l3.1-0.5c0.6-1.3,1.2-2.5,1.8-3.6c0.1-0.1,0.2-0.3,0.2-0.4
			c0.1-0.2,0.3-0.5,0.4-0.7c0.1-0.1,0.2-0.3,0.2-0.4c0.1-0.2,0.2-0.4,0.4-0.7c0.1-0.2,0.2-0.3,0.2-0.4c0.1-0.2,0.3-0.4,0.4-0.7
			c0.1-0.1,0.1-0.3,0.2-0.4c0.1-0.2,0.3-0.4,0.4-0.7c0.1-0.1,0.1-0.2,0.2-0.3c0.1-0.2,0.3-0.4,0.4-0.7c0.1-0.1,0.1-0.2,0.2-0.3
			c0.2-0.3,0.4-0.6,0.6-0.9l0,0c0.2-0.3,0.4-0.6,0.6-0.9c0.1-0.1,0.1-0.2,0.2-0.2c0.1-0.2,0.3-0.4,0.4-0.6c0.1-0.1,0.1-0.2,0.2-0.3
			c0.1-0.2,0.2-0.3,0.3-0.5c0.1-0.1,0.2-0.2,0.2-0.3c0.1-0.1,0.2-0.3,0.3-0.4c0.1-0.1,0.2-0.2,0.3-0.3c0.1-0.1,0.2-0.3,0.3-0.4
			c0.1-0.1,0.2-0.2,0.3-0.3c0.1-0.1,0.2-0.2,0.3-0.3c0.1-0.1,0.2-0.2,0.2-0.3c0.1-0.1,0.2-0.2,0.3-0.3c0.1-0.1,0.2-0.2,0.3-0.3
			c0.1-0.1,0.2-0.2,0.3-0.3c0.1-0.1,0.1-0.2,0.2-0.2c0.1-0.1,0.2-0.2,0.3-0.3c0.1-0.1,0.2-0.1,0.2-0.2c0.1-0.1,0.2-0.2,0.3-0.3
			c0.1-0.1,0.1-0.1,0.2-0.2c0.1-0.1,0.2-0.2,0.3-0.3c0.1,0,0.1-0.1,0.2-0.2c0.1-0.2,0.3-0.3,0.4-0.4c0.1,0,0.1-0.1,0.2-0.1
			c0.1-0.1,0.1-0.1,0.2-0.2c0-0.1,0.1-0.1,0.2-0.2c0.1-0.1,0.2-0.1,0.2-0.2c0.1,0,0.1-0.1,0.2-0.1c0-0.1,0.1-0.1,0.2-0.2l0.1-0.1
			c0.1,0,0.1-0.1,0.2-0.1l0.1-0.1l0.1-0.1l0.1-0.1c0.1,0,0.1,0,0.1-0.1c0,0,0.1,0,0.1-0.1l0.1-0.1l0.1-0.1c0,0,0.1,0,0.1-0.1l0,0
			c0,0,0,0,0.1-0.1l0,0c0,0,0,0,0.1,0l0,0l0,0l-0.2,1.1l0,0l-2.8,13.3C38.2,175.4,53.9,160,61.4,153z M30,151.6l1.2-0.4
			c0,0.2,0.1,0.3,0.2,0.5c0.7,1.6,2.2,2.6,3.8,2.6c0.5,0,1-0.1,1.5-0.3c0.8-0.3,1.5-0.9,1.9-1.6l-1.3-0.8c0.2-0.3,0.2-0.7,0.2-1.2
			s-0.1-0.9-0.3-1.3l2.8-0.9c1,3-0.4,6.1-3.2,7.1C34,156.2,31,154.6,30,151.6z"/>
	</g>
	<g>
		<path class="st1" d="M287.3,173.9c-1.9-0.5-4.7-0.8-8.3-0.8h-8v44.8l0.8-0.6l6.5-4.6l0.2-0.2v-12.7h2.5c4.6,0,8.3-1.2,11.1-3.6
			c2.8-2.4,4.2-5.7,4.2-9.8c0-3.8-1.3-7-3.9-9.6C290.9,175.4,289.2,174.4,287.3,173.9z M280.7,193.4h-2.1v-13.7h2.3c6,0,9,2.2,9,6.6
			C289.9,191,286.8,193.4,280.7,193.4z M329.4,198.7c2.6-0.7,4.8-2.2,6.5-4.2c1.8-2.3,2.7-5.1,2.7-8.2c0-4-1.5-7.4-4.4-9.9
			c-2.6-2.2-6.9-3.4-12.7-3.4h-8.2v44.8l0.8-0.6l6.5-4.6l0.2-0.2v-12.8h0.4l12.2,17.5l0.3,0.4l0.4-0.3l5.2-3.8l0.4-0.3l-0.3-0.4
			L329.4,198.7z M320.9,193.4V193l0,0v-12.6l0,0v-0.6h2.3c6,0,9,2.2,9,6.6c0,4.7-3.1,7.1-9.3,7.1h-2V193.4z M215.7,174.4
			c-2.6-0.9-6.1-1.3-10.5-1.3h-9.6v44.3h9.5c4.4,0,7.9-0.4,10.3-1.2c2.6-0.8,5.1-2.3,7.5-4.4c4.7-4.2,7.1-9.7,7.1-16.5
			c0-6.7-2.3-12.3-6.9-16.4C221,176.7,218.4,175.3,215.7,174.4z M217.8,206.3c-1.5,1.3-3.2,2.4-5.1,3c-1.8,0.6-4.3,0.9-7.1,0.9h-2.4
			v-29.9h2.4c5.4,0,9.5,1.3,12.2,3.8c3.1,2.8,4.6,6.6,4.6,11.1C222.4,199.7,220.9,203.4,217.8,206.3z M168,179.5
			c2.8,0,5.6,0.8,8.3,2.4l0.5,0.3l0.3-0.5l3.2-5.5l0.3-0.5l-0.5-0.3c-3.7-2.1-7.6-3.2-11.5-3.2c-7.2,0-13.2,2.7-17.8,8.1
			c-3.7,4.4-5.6,9.5-5.6,15.1c0,6.2,2.3,11.7,6.7,16.1c4.5,4.4,9.9,6.6,16.2,6.6c4.2,0,8.2-1.1,12-3.2l0.3-0.2v-0.4l-0.1-0.1
			l-3.2-5.5l-0.3-0.5l-0.5,0.3c-0.9,0.6-1.8,1-2.6,1.4c-1.5,0.7-3.4,1.1-5.7,1.1c-4.3,0-7.9-1.5-10.8-4.5c-2.9-3-4.4-6.7-4.4-11.1
			c0-4.4,1.5-8.2,4.4-11.2C160.1,181,163.7,179.5,168,179.5z M536.9,180.3h9.9v37.5l0.8-0.6l6.5-4.6l0.2-0.2v-32.2h9.9V173h-27.4
			L536.9,180.3L536.9,180.3z M376.5,172.3c-6.3,0-11.9,2.3-16.4,6.7c-4.6,4.4-6.9,9.8-6.9,16c0,7,2.5,12.8,7.5,17.2
			c4.5,3.9,9.7,5.9,15.4,5.9c6.4,0,12-2.3,16.5-6.7s6.8-9.8,6.8-16.2c0-6.3-2.3-11.8-6.8-16.2C388.2,174.5,382.8,172.3,376.5,172.3z
			 M387.3,206.4c-3,3-6.7,4.5-11.1,4.5c-4,0-7.6-1.5-10.6-4.5c-3.1-2.9-4.7-6.8-4.7-11.4c0-4.4,1.5-8.1,4.5-11.1s6.7-4.6,11-4.6
			s8,1.5,11,4.6c3,3,4.5,6.8,4.5,11.2C391.8,199.6,390.3,203.3,387.3,206.4z M516.2,173.2l-15.9,16.3v-16.9l-0.8,0.6l-6.5,4.6
			l-0.2,0.2v39.9l0.9-0.6l6.5-4.6l0.2-0.2v-13.3l0.8-0.8l15.2,18.8l0.3,0.4l0.4-0.3l5.6-3.8l0.5-0.3l-0.4-0.5l-16.2-19.5l19.2-19.2
			l0.9-0.9h-10.2L516.2,173.2z M422.8,177.8l-0.2,0.2v23.6c0,3.6-0.4,6.1-1.1,7.5c-0.7,1.3-1.8,1.9-3.5,1.9c-1.3,0-2.6-0.5-4.1-1.5
			l-0.5-0.3l-0.3,0.5l-3.2,5.6l-0.3,0.5l0.4,0.3c2.4,1.5,5.1,2.2,7.9,2.2c3.8,0,6.8-1.4,9.1-4c1.2-1.3,2-3,2.5-5
			c0.5-1.7,0.7-4.2,0.7-7.6v-29l-0.9,0.6L422.8,177.8z M469.5,180.3l0.2-0.2l6-6.1l0.9-0.9H451v44.3h18.7l0.2-0.1l5.9-6.1l0.9-0.9
			h-18v-13.7h5.5l0.1-0.2l6.1-6.1l0.9-0.9h-12.7v-8.9h10.9V180.3z"/>
		<g>
			<path class="st1" d="M578.8,187.7c-4.3,0-7.7-3.5-7.7-7.7c0-4.3,3.5-7.7,7.7-7.7c4.3,0,7.7,3.4,7.7,7.7S583.1,187.7,578.8,187.7z
				 M578.8,173.4c-3.7,0-6.6,2.9-6.6,6.6c0,3.6,2.9,6.6,6.6,6.6c3.6,0,6.6-3,6.6-6.6C585.4,176.3,582.4,173.4,578.8,173.4z
				 M580.9,184.4l-2.3-3.5h-1.5v3.5h-1.2v-8.9h3.6c1.5,0,2.9,1.1,2.9,2.7c0,2-1.8,2.6-2.3,2.6l2.4,3.5L580.9,184.4L580.9,184.4z
				 M579.4,176.7H577v3.1h2.4c0.8,0,1.6-0.6,1.6-1.5C581,177.3,580.2,176.7,579.4,176.7z"/>
		</g>
	</g>
</g>
</svg>
